{
  "episode_id": "PD-2026-008-carpenter",
  "render": "artifact://episodes/PD-2026-008-carpenter/08_edit/carpenter_review_v001.mp4",
  "media_render": "H:\\pd-media\\episodes\\PD-2026-008-carpenter\\08_edit\\carpenter_review_v001.mp4",
  "sha256": "958914322dc4e802a85e73d489bb374cabbe5e4b12e4d19c5043f58c3b2dfe49",
  "duration_seconds": 678.0,
  "target_duration_seconds": 678.0,
  "video": "Remotion CarpenterPremium, synthetic-symbolic visuals, 1920x1080 H.264",
  "audio": "ElevenLabs narration slowed to ~669s, library music, ambience, SFX",
  "captions": "burned SRT from locked script text, scaled to slowed narration",
  "paid_generation_performed": true,
  "estimated_elevenlabs_cost_usd": 2.82,
  "external_upload_performed": false,
  "publish_performed": false,
  "synthetic_content_disclosure_required": true,
  "accuracy_checks": {
    "vote_5_4": true,
    "no_incorrect_vote_count": true,
    "points_12898": true,
    "symbolic_reconstruction_label": true
  },
  "audio_probe_tail": "0:04:04.40 bitrate=N/A speed=78.8x elapsed=0:00:03.10    \nframe= 8524 fps=2354 q=-0.0 size=N/A time=00:04:44.13 bitrate=N/A speed=78.5x elapsed=0:00:03.62    \nframe= 9679 fps=2345 q=-0.0 size=N/A time=00:05:22.60 bitrate=N/A speed=78.1x elapsed=0:00:04.12    \nframe=10926 fps=2350 q=-0.0 size=N/A time=00:06:04.20 bitrate=N/A speed=78.3x elapsed=0:00:04.64    \nframe=12078 fps=2344 q=-0.0 size=N/A time=00:06:42.60 bitrate=N/A speed=78.1x elapsed=0:00:05.15    \nframe=13191 fps=2327 q=-0.0 size=N/A time=00:07:19.70 bitrate=N/A speed=77.6x elapsed=0:00:05.66    \nframe=14470 fps=2334 q=-0.0 size=N/A time=00:08:02.33 bitrate=N/A speed=77.8x elapsed=0:00:06.19    \nframe=15703 fps=2342 q=-0.0 size=N/A time=00:08:43.43 bitrate=N/A speed=78.1x elapsed=0:00:06.70    \nframe=17066 fps=2362 q=-0.0 size=N/A time=00:09:28.86 bitrate=N/A speed=78.7x elapsed=0:00:07.22    \nframe=18464 fps=2385 q=-0.0 size=N/A time=00:10:15.43 bitrate=N/A speed=79.5x elapsed=0:00:07.74    \nframe=19531 fps=2368 q=-0.0 size=N/A time=00:10:51.03 bitrate=N/A speed=78.9x elapsed=0:00:08.24    \n[Parsed_volumedetect_0 @ 000001ae2d52c4c0] n_samples: 29900800\n[Parsed_volumedetect_0 @ 000001ae2d52c4c0] mean_volume: -22.4 dB\n[Parsed_volumedetect_0 @ 000001ae2d52c4c0] max_volume: -2.0 dB\n[Parsed_volumedetect_0 @ 000001ae2d52c4c0] histogram_2db: 22\n[Parsed_volumedetect_0 @ 000001ae2d52c4c0] histogram_3db: 71\n[Parsed_volumedetect_0 @ 000001ae2d52c4c0] histogram_4db: 271\n[Parsed_volumedetect_0 @ 000001ae2d52c4c0] histogram_5db: 896\n[Parsed_volumedetect_0 @ 000001ae2d52c4c0] histogram_6db: 2904\n[Parsed_volumedetect_0 @ 000001ae2d52c4c0] histogram_7db: 7132\n[Parsed_volumedetect_0 @ 000001ae2d52c4c0] histogram_8db: 16948\n[Parsed_volumedetect_0 @ 000001ae2d52c4c0] histogram_9db: 36910\n[out#0/null @ 000001ae2b072380] video:8422KiB audio:58400KiB subtitle:0KiB other streams:0KiB global headers:0KiB muxing overhead: unknown\nframe=20340 fps=2363 q=-0.0 Lsize=N/A time=00:11:18.00 bitrate=N/A speed=78.8x elapsed=0:00:08.60    \n",
  "known_limitations": [
    "Captions are chunk-time scaled, not forced word-aligned."
  ]
}
